<svg width="24" height="24" viewBox="0 0 24 24" fill="none" xmlns="http://www.w3.org/2000/svg">
<mask id="mask0_56_115" style="mask-type:alpha" maskUnits="userSpaceOnUse" x="0" y="0" width="24" height="24">
<rect width="24" height="24" fill="#D9D9D9"/>
</mask>
<g mask="url(#mask0_56_115)">
<path fill-rule="evenodd" clip-rule="evenodd" d="M17.6586 14C16.8349 16.3304 14.6124 18 12 18C8.68629 18 6 15.3137 6 12C6 8.68629 8.68629 6 12 6C14.2208 6 16.1599 7.2066 17.1973 9H14V11H18H20V9V5H18V6.70835C16.5341 5.04751 14.3894 4 12 4C7.58172 4 4 7.58172 4 12C4 16.4183 7.58172 20 12 20C15.7277 20 18.8599 17.4505 19.748 14H17.6586Z" fill="black"/>
</g>
</svg>
